<?xml version="1.0" encoding="UTF-8" standalone="no"?><svg xmlns="http://www.w3.org/2000/svg" xmlns:xlink="http://www.w3.org/1999/xlink" fill="#000000" height="500" preserveAspectRatio="xMidYMid meet" version="1" viewBox="0.0 -0.0 500.0 500.0" width="500" zoomAndPan="magnify"><g id="change1_1"><path d="M267.959,257.439c35.68-0.133,71.36-0.62,107.041-1.562c41.667-1.159,83.333-2.77,125-5.877 c-41.667-3.107-83.333-4.718-125-5.877c-35.68-0.942-71.36-1.429-107.041-1.562c25.136-25.324,50.021-50.898,74.585-76.794 c28.643-30.283,56.967-60.884,84.233-92.544c-31.66,27.266-62.261,55.59-92.544,84.233c-25.896,24.564-51.47,49.449-76.794,74.585 c-0.133-35.68-0.62-71.36-1.562-107.041c-1.159-41.667-2.77-83.333-5.877-125c-3.107,41.667-4.718,83.333-5.877,125 c-0.942,35.677-1.429,71.354-1.562,107.031c-25.313-25.143-50.886-50.027-76.779-74.59c-30.279-28.646-60.885-56.966-92.558-84.218 c27.253,31.673,55.572,62.279,84.218,92.558c24.561,25.891,49.442,51.462,74.583,76.773c-35.675,0.12-71.35,0.608-107.024,1.548 C83.333,245.258,41.667,246.874,0,250c41.667,3.126,83.333,4.742,125,5.897c35.675,0.941,71.35,1.428,107.025,1.548 c-25.141,25.311-50.022,50.881-74.583,76.773c-28.646,30.279-56.966,60.885-84.218,92.558 c31.673-27.252,62.279-55.572,92.558-84.218c25.891-24.561,51.462-49.442,76.773-74.583c0.12,35.675,0.608,71.35,1.548,107.025 c1.155,41.667,2.771,83.333,5.897,125c3.126-41.667,4.742-83.333,5.897-125c0.941-35.678,1.428-71.356,1.548-107.034 c25.321,25.134,50.893,50.017,76.787,74.578c30.283,28.643,60.884,56.967,92.544,84.233c-27.266-31.66-55.59-62.261-84.233-92.544 C317.98,308.337,293.095,282.763,267.959,257.439z" fill="#000000"/></g></svg>