<?xml version="1.0" encoding="UTF-8" standalone="no"?><svg xmlns="http://www.w3.org/2000/svg" xmlns:xlink="http://www.w3.org/1999/xlink" fill="#69443c" height="136.9" preserveAspectRatio="xMidYMid meet" version="1" viewBox="7.7 27.1 184.6 136.9" width="184.6" zoomAndPan="magnify"><g id="change1_1"><path d="M640 1701 c-103 -22 -219 -69 -282 -116 -39 -28 -56 -52 -92 -127 -95 -197 -167 -483 -182 -723 -7 -104 -7 -105 22 -146 60 -88 211 -173 369 -209 51 -12 103 -20 116 -18 16 2 42 26 77 73 31 42 59 70 70 69 9 -1 52 -6 95 -13 100 -14 234 -14 334 0 43 7 86 12 95 13 11 1 39 -27 70 -69 35 -47 61 -71 77 -73 13 -2 65 6 116 18 158 36 309 121 369 209 29 41 29 42 22 144 -15 242 -87 526 -182 725 -36 75 -53 99 -92 127 -67 49 -181 94 -300 119 -115 23 -129 20 -147 -34 l-12 -34 -183 0 -184 0 -7 27 c-17 63 -33 66 -169 38z m815 -111 c108 -36 160 -76 199 -149 87 -166 166 -474 182 -706 l7 -90 -52 -48 c-61 -57 -165 -109 -276 -137 l-80 -21 -32 38 c-18 21 -33 43 -33 49 0 5 35 25 78 42 90 38 172 95 172 120 0 21 -18 42 -37 42 -7 0 -37 -16 -66 -35 -66 -44 -155 -80 -265 -107 -125 -31 -379 -31 -504 0 -110 27 -199 63 -265 107 -29 19 -59 35 -66 35 -19 0 -37 -21 -37 -42 0 -25 82 -82 173 -120 42 -17 77 -37 77 -42 0 -6 -15 -28 -33 -49 l-32 -38 -80 21 c-111 28 -215 80 -276 137 l-51 48 6 90 c17 237 99 551 187 715 23 43 42 64 82 88 64 39 183 80 254 89 77 9 67 -11 -19 -37 -40 -12 -107 -39 -150 -61 -65 -33 -78 -43 -78 -64 0 -46 32 -49 107 -12 146 73 273 101 453 101 182 0 281 -21 442 -96 73 -34 90 -39 103 -28 8 7 15 23 15 36 0 20 -14 31 -78 63 -43 22 -110 49 -150 61 -68 21 -80 29 -66 42 7 7 109 -16 189 -42z" transform="matrix(.1 0 0 -.1 0 200)"/><path d="M675 1146 c-130 -58 -153 -245 -42 -343 88 -77 216 -42 268 72 71 156 -79 336 -226 271z m113 -82 c54 -37 67 -119 29 -175 -43 -64 -111 -64 -154 0 -51 76 -4 191 77 191 14 0 36 -7 48 -16z" transform="matrix(.1 0 0 -.1 0 200)"/><path d="M1195 1146 c-130 -58 -153 -245 -42 -343 88 -77 216 -42 268 72 71 156 -79 336 -226 271z m113 -82 c54 -37 67 -119 29 -175 -43 -64 -111 -64 -154 0 -51 76 -4 191 77 191 14 0 36 -7 48 -16z" transform="matrix(.1 0 0 -.1 0 200)"/></g></svg>