<?xml version="1.0" encoding="UTF-8" standalone="no"?><svg xmlns="http://www.w3.org/2000/svg" xmlns:xlink="http://www.w3.org/1999/xlink" fill="#000000" height="500" preserveAspectRatio="xMidYMid meet" version="1" viewBox="0.0 0.0 500.0 500.0" width="500" zoomAndPan="magnify"><g id="change1_1"><path d="M362.329,356.421L346.84,340.66l-31.002-31.498l-51.021-51.341c0.715-1.351,1.253-2.81,1.577-4.348 l27.999-0.117l22.196-0.251l11.098-0.132l11.098-0.207c29.595-0.519,59.191-1.29,88.786-2.765 c-29.595-1.475-59.191-2.246-88.786-2.765l-11.098-0.207l-11.098-0.132l-22.196-0.251l-27.999-0.117 c-0.324-1.539-0.862-2.997-1.577-4.348l51.021-51.341l31.002-31.498l15.489-15.761l15.419-15.831 C418.895,85.562,459.796,43.13,500,0c-43.13,40.204-85.562,81.105-127.748,122.252l-15.831,15.419L340.66,153.16l-31.498,31.002 l-51.341,51.021c-1.351-0.715-2.81-1.253-4.348-1.577l-0.117-27.999l-0.251-22.196l-0.132-11.098l-0.207-11.098 c-0.519-29.595-1.29-59.191-2.765-88.786c-1.475,29.595-2.246,59.191-2.765,88.786l-0.207,11.098l-0.132,11.098l-0.251,22.196 l-0.117,27.999c-1.538,0.324-2.995,0.862-4.346,1.576l-51.333-51.029l-31.5-31l-15.757-15.493l-15.832-15.418 C85.574,81.092,43.139,40.195,0,0c40.195,43.138,81.092,85.574,122.241,127.759l15.418,15.832l15.493,15.757l31,31.5l51.029,51.334 c-0.715,1.352-1.253,2.811-1.577,4.35l-27.998,0.123c-14.798,0.192-29.595,0.265-44.393,0.591 c-29.595,0.521-59.191,1.288-88.786,2.754c29.595,1.466,59.191,2.234,88.786,2.755c14.798,0.326,29.595,0.399,44.393,0.591 l27.998,0.123c0.324,1.539,0.862,2.998,1.577,4.35l-51.029,51.334l-31,31.5l-15.493,15.757l-15.418,15.832 C81.092,414.426,40.195,456.862,0,500c43.139-40.195,85.574-81.092,127.759-122.241l15.832-15.418l15.757-15.493l31.5-31 l51.334-51.029c1.352,0.715,2.81,1.253,4.35,1.577l0.123,27.998c0.192,14.798,0.265,29.595,0.591,44.393 c0.521,29.595,1.288,59.191,2.754,88.786c1.466-29.595,2.234-59.191,2.755-88.786c0.327-14.798,0.399-29.595,0.591-44.393 l0.123-27.998c1.54-0.324,3-0.863,4.352-1.578l51.341,51.021l31.498,31.002l15.761,15.489l15.831,15.419 C414.438,418.895,456.87,459.796,500,500c-40.204-43.13-81.105-85.562-122.252-127.748L362.329,356.421z" fill="#d2b598"/></g></svg>